<?xml version="1.0" encoding="UTF-8" standalone="no"?>
<svg xmlns="http://www.w3.org/2000/svg"
    xmlns:xlink="http://www.w3.org/1999/xlink" fill="#000000" height="203.3" preserveAspectRatio="xMidYMid meet" version="1" viewBox="227.1 212.4 181.6 203.3" width="181.6" zoomAndPan="magnify">
    <g id="change1_1">
        <path d="M176.29999389648438,3.8000000059604644 C176.4999938994646,3.8000000059604644 176.5999939084053,3.8000000059604644 176.79999389648438,3.7000000044703483 C208.79999389648438,-4.3213367550976045E-8 231.49999465942383,25.999999241530894 225.29999389648438,56.79999847859144 C220.79999389648438,79.19999809712172 207.99999465942383,99.29999847859145 224.49999388456345,120.20000000447035 C231.89999397993088,129.50000019520522 241.59999426603318,136.59999962300063 249.6999946475029,145.4000007674098 C271.7999950289726,169.30000038594008 256.399994456768,196.4999992415309 264.99999483823774,224.20000381916762 C266.799994790554,229.90000362843276 270.2999950289726,234.80000420063735 274.1999946475029,239.40000362843276 C286.899994456768,254.30000324696303 303.4999938845634,265.9000036284327 310.29999312162397,285.0000021025538 C317.1999932169914,304.30000133961437 314.89999302625654,326.5000021025538 304.79999312162397,344.30000133961437 C286.5999923586845,376.39999981373546 247.1999946475029,384.6000005766749 212.9999900698662,380.30000133961437 C181.9999900698662,376.30000133961437 156.79998930692673,364.20000095814464 133.8999915957451,342.89999981373546 C127.49999150037766,336.89999981373546 121.19999178647996,327.89999981373546 113.09999235868455,324.39999981373546 C103.19999274015427,320.0999996230006 93.99999197721482,325.89999981373546 84.99999197721482,329.7999999091029 C33.79999121427536,352.00000067204235 23.79999121427536,278.7999999091029 29.29999121427536,245.29999990910292 C33.39999111890793,220.1999995276332 31.399991118907927,197.29999990910292 21.599991405010222,173.60000296086073 C13.4,153.0999969482422 2.384185793236071E-8,132.00000610351563 0.9,109.20000305175782 C1.7000000119209289,90.20000305175782 10.599999809265137,71.30000152587891 28.299999618530272,62.70000305175781 C43.199999237060545,55.40000286102295 59.29999961853027,56.90000286102295 73.39999809265137,64.90000309944153 C81.09999790191651,69.2000032901764 88.9999984741211,74.10000290870667 97.79999771118165,74.2000032901764 C118.89999809265137,74.50000330209733 128.89999809265137,51.50000252723694 137.69999923706055,36.100004816055296 C146.5999969482422,20.60000076293945 157.29999389648438,6.300000095367432 176.29999389648438,3.8000000059604644" fill="#fffbef"/>
    </g>
</svg>